<svg width="280" height="26" viewBox="0 0 280 26" fill="none" xmlns="http://www.w3.org/2000/svg">
<path d="M5.16 20H0.82V0.399999H5.16V8.044L12.692 0.399999H18.348L9.836 9.08L18.908 20H13.196L6.56 11.992L5.16 13.42V20ZM27.2288 20H19.8928V5.44H26.2488C26.9021 5.44 27.4901 5.468 28.0128 5.524C28.5355 5.56133 29.0955 5.664 29.6928 5.832C30.2901 6 30.7848 6.224 31.1768 6.504C31.5875 6.784 31.9235 7.176 32.1848 7.68C32.4461 8.184 32.5768 8.78133 32.5768 9.472C32.5768 9.88267 32.4928 10.312 32.3248 10.76C32.1195 11.2267 31.7555 11.7213 31.2328 12.244C31.7928 12.5053 32.2128 12.944 32.4928 13.56C32.7915 14.176 32.9408 14.82 32.9408 15.492C32.9408 17.0413 32.3901 18.18 31.2888 18.908C30.1875 19.636 28.8341 20 27.2288 20ZM26.6688 14.372H23.9528V16.36H26.8368C28.1061 16.36 28.7408 16.0427 28.7408 15.408C28.7408 15.0347 28.5821 14.764 28.2648 14.596C27.9101 14.4467 27.3781 14.372 26.6688 14.372ZM26.1648 9.08H23.9528V10.872H27.0048C27.9195 10.872 28.3768 10.5733 28.3768 9.976C28.3768 9.696 28.2648 9.472 28.0408 9.304C27.7981 9.15467 27.1728 9.08 26.1648 9.08ZM36.7838 10.312L34.8518 7.372C35.5611 6.60667 36.5038 6.04667 37.6798 5.692C38.8745 5.31867 40.0691 5.132 41.2638 5.132C43.1491 5.132 44.6145 5.664 45.6598 6.728C46.7051 7.792 47.2278 9.276 47.2278 11.18V20H43.1678V18.684C42.7571 19.1507 42.1691 19.5147 41.4038 19.776C40.6571 20.0373 39.9385 20.168 39.2478 20.168C37.7171 20.168 36.4478 19.748 35.4398 18.908C34.4318 18.068 33.9278 16.9013 33.9278 15.408C33.9278 14.2693 34.2825 13.3267 34.9918 12.58C35.7011 11.8333 36.5225 11.32 37.4558 11.04C38.4078 10.76 39.4345 10.62 40.5358 10.62C41.6371 10.62 42.5145 10.7413 43.1678 10.984C43.2051 10.2747 43.0185 9.752 42.6078 9.416C42.1785 9.08 41.5811 8.912 40.8158 8.912C39.4531 8.912 38.1091 9.37867 36.7838 10.312ZM40.0878 16.668C40.7038 16.668 41.3011 16.5187 41.8798 16.22C42.4771 15.9213 42.9065 15.52 43.1678 15.016V14.344C42.5145 14.1013 41.7771 13.98 40.9558 13.98C40.3211 13.98 39.7798 14.036 39.3318 14.148C38.5291 14.4093 38.1278 14.8293 38.1278 15.408C38.1278 15.856 38.3238 16.1827 38.7158 16.388C39.1265 16.5747 39.5838 16.668 40.0878 16.668ZM53.7302 25.6H49.6702V5.44H53.7302V6.196C54.0848 5.86 54.5795 5.59867 55.2142 5.412C55.8488 5.22533 56.4368 5.132 56.9782 5.132C59.1622 5.132 60.8982 5.82267 62.1862 7.204C63.4928 8.58533 64.1462 10.3493 64.1462 12.496C64.1462 14.7173 63.4742 16.5653 62.1302 18.04C60.7862 19.496 59.0315 20.224 56.8662 20.224C55.1488 20.224 54.1035 19.9813 53.7302 19.496V25.6ZM56.5302 8.912C55.2795 8.912 54.3462 9.46267 53.7302 10.564V15.212C53.9542 15.5853 54.3182 15.884 54.8222 16.108C55.3262 16.332 55.8208 16.444 56.3062 16.444C57.4075 16.444 58.2848 16.1173 58.9382 15.464C59.6102 14.792 59.9462 13.9053 59.9462 12.804C59.9462 11.6093 59.6662 10.6667 59.1062 9.976C58.5462 9.26667 57.6875 8.912 56.5302 8.912ZM69.1735 9.22H64.2175V5.44H78.2455V9.22H73.2335V20H69.1735V9.22ZM89.5796 12.076L83.0556 20H79.6116V5.44H83.6716V13.364L90.1956 5.44H93.6396V20H89.5796V12.076ZM100.215 25.6H96.1545V5.44H100.215V6.196C100.569 5.86 101.064 5.59867 101.699 5.412C102.333 5.22533 102.921 5.132 103.463 5.132C105.647 5.132 107.383 5.82267 108.671 7.204C109.977 8.58533 110.631 10.3493 110.631 12.496C110.631 14.7173 109.959 16.5653 108.615 18.04C107.271 19.496 105.516 20.224 103.351 20.224C101.633 20.224 100.588 19.9813 100.215 19.496V25.6ZM103.015 8.912C101.764 8.912 100.831 9.46267 100.215 10.564V15.212C100.439 15.5853 100.803 15.884 101.307 16.108C101.811 16.332 102.305 16.444 102.791 16.444C103.892 16.444 104.769 16.1173 105.423 15.464C106.095 14.792 106.431 13.9053 106.431 12.804C106.431 11.6093 106.151 10.6667 105.591 9.976C105.031 9.26667 104.172 8.912 103.015 8.912ZM118.163 20H112.451V5.44H116.511V9.304H118.359C120.301 9.304 121.85 9.73333 123.007 10.592C124.165 11.4507 124.743 12.7947 124.743 14.624C124.743 16.4347 124.109 17.788 122.839 18.684C121.589 19.5613 120.03 20 118.163 20ZM118.135 13.084H116.511V16.22H118.107C119.731 16.22 120.543 15.6973 120.543 14.652C120.543 14.204 120.413 13.8587 120.151 13.616C119.89 13.3733 119.601 13.224 119.283 13.168C118.985 13.112 118.602 13.084 118.135 13.084ZM129.615 20H125.555V5.44H129.615V20ZM152.28 20H148.22V9.22H142.816V20H138.756V5.44H152.28V20ZM154.107 12.692C154.107 10.452 154.863 8.632 156.375 7.232C157.887 5.832 159.754 5.132 161.975 5.132C164.234 5.132 166.119 5.84133 167.631 7.26C169.143 8.66 169.899 10.4707 169.899 12.692C169.899 14.932 169.134 16.752 167.603 18.152C166.072 19.5333 164.196 20.224 161.975 20.224C159.754 20.224 157.887 19.5147 156.375 18.096C154.863 16.6773 154.107 14.876 154.107 12.692ZM158.307 12.692C158.307 13.756 158.652 14.652 159.343 15.38C160.052 16.0893 160.93 16.444 161.975 16.444C163.095 16.444 163.991 16.0987 164.663 15.408C165.354 14.7173 165.699 13.812 165.699 12.692C165.699 11.5907 165.354 10.6853 164.663 9.976C163.972 9.26667 163.076 8.912 161.975 8.912C160.874 8.912 159.987 9.26667 159.315 9.976C158.643 10.6853 158.307 11.5907 158.307 12.692ZM182.513 14.54L185.481 16.304C184.847 17.536 183.941 18.4973 182.765 19.188C181.589 19.8787 180.301 20.224 178.901 20.224C176.587 20.224 174.692 19.5333 173.217 18.152C171.743 16.7707 171.005 14.9507 171.005 12.692C171.005 10.4707 171.733 8.66 173.189 7.26C174.664 5.84133 176.503 5.132 178.705 5.132C180.161 5.132 181.496 5.43067 182.709 6.028C183.941 6.62533 184.828 7.54 185.369 8.772L182.345 10.732C181.86 10.0973 181.365 9.64 180.861 9.36C180.357 9.06133 179.723 8.912 178.957 8.912C177.837 8.912 176.932 9.26667 176.241 9.976C175.551 10.6667 175.205 11.572 175.205 12.692C175.205 13.7933 175.616 14.6987 176.437 15.408C177.259 16.0987 178.229 16.444 179.349 16.444C180.693 16.444 181.748 15.8093 182.513 14.54ZM197.078 5.44H201.418L193.214 25.6H188.818L191.814 18.768L184.842 5.44H189.574L193.802 13.896L197.078 5.44ZM206.466 9.22H201.51V5.44H215.538V9.22H210.526V20H206.466V9.22ZM215.685 12.692C215.685 10.452 216.441 8.632 217.953 7.232C219.465 5.832 221.332 5.132 223.553 5.132C225.812 5.132 227.697 5.84133 229.209 7.26C230.721 8.66 231.477 10.4707 231.477 12.692C231.477 14.932 230.712 16.752 229.181 18.152C227.65 19.5333 225.774 20.224 223.553 20.224C221.332 20.224 219.465 19.5147 217.953 18.096C216.441 16.6773 215.685 14.876 215.685 12.692ZM219.885 12.692C219.885 13.756 220.23 14.652 220.921 15.38C221.63 16.0893 222.508 16.444 223.553 16.444C224.673 16.444 225.569 16.0987 226.241 15.408C226.932 14.7173 227.277 13.812 227.277 12.692C227.277 11.5907 226.932 10.6853 226.241 9.976C225.55 9.26667 224.654 8.912 223.553 8.912C222.452 8.912 221.565 9.26667 220.893 9.976C220.221 10.6853 219.885 11.5907 219.885 12.692ZM242.103 5.44H246.163V20H242.103V14.82C241.226 15.4733 240.106 15.8 238.743 15.8C234.73 15.8 232.723 13.868 232.723 10.004V5.44H236.783V8.436C236.783 9.70533 236.979 10.62 237.371 11.18C237.763 11.74 238.538 12.02 239.695 12.02C240.125 12.02 240.563 11.908 241.011 11.684C241.478 11.46 241.842 11.18 242.103 10.844V5.44ZM262.37 20H258.31V14.54H252.738V20H248.678V5.44H252.738V10.76H258.31V5.44H262.37V20ZM264.193 12.692C264.193 10.452 264.949 8.632 266.461 7.232C267.973 5.832 269.839 5.132 272.061 5.132C274.319 5.132 276.205 5.84133 277.717 7.26C279.229 8.66 279.985 10.4707 279.985 12.692C279.985 14.932 279.219 16.752 277.689 18.152C276.158 19.5333 274.282 20.224 272.061 20.224C269.839 20.224 267.973 19.5147 266.461 18.096C264.949 16.6773 264.193 14.876 264.193 12.692ZM268.393 12.692C268.393 13.756 268.738 14.652 269.429 15.38C270.138 16.0893 271.015 16.444 272.061 16.444C273.181 16.444 274.077 16.0987 274.749 15.408C275.439 14.7173 275.785 13.812 275.785 12.692C275.785 11.5907 275.439 10.6853 274.749 9.976C274.058 9.26667 273.162 8.912 272.061 8.912C270.959 8.912 270.073 9.26667 269.401 9.976C268.729 10.6853 268.393 11.5907 268.393 12.692Z" fill="#011627"/>
</svg>
